<?xml version="1.0" encoding="UTF-8"?>
<svg version="1.1" xmlns="http://www.w3.org/2000/svg" width="247" height="235">
<path d="M0 0 C7.17864559 0.14982613 7.17864559 0.14982613 10.48583984 0.25537109 C12.71548779 0.32232031 14.94421067 0.35930618 17.17456055 0.39404297 C35.13548847 0.82454745 50.26967616 6.17689922 62.94995117 19.19873047 C73.36804627 30.58972161 78.80469038 45.7341422 78.30151367 61.21826172 C76.15126006 79.44763398 69.04458027 92.81242322 54.88745117 104.57373047 C50.75710576 107.73672226 46.75064577 110.22029238 41.94995117 112.19873047 C41.3210498 112.4675 40.69214844 112.73626953 40.04418945 113.01318359 C31.22519724 116.21134573 22.06144867 115.52615073 12.82495117 115.38623047 C11.08798361 115.371156 9.35100339 115.35747249 7.61401367 115.34521484 C3.39208617 115.31500067 -0.82805584 115.256245 -5.05004883 115.19873047 C-5.05004883 105.95873047 -5.05004883 96.71873047 -5.05004883 87.19873047 C-0.65608505 86.46640317 2.96616326 86.07762394 7.34448242 86.05810547 C8.54782227 86.03876953 9.75116211 86.01943359 10.9909668 85.99951172 C13.49341053 85.9658175 15.99611011 85.94744071 18.4987793 85.94482422 C27.14488406 85.76940939 33.35099966 84.4715845 39.78857422 78.49047852 C45.54441656 72.48036569 47.11417409 66.45954297 47.38745117 58.26123047 C47.17671545 49.30496216 44.50727365 42.46461639 37.94995117 36.19873047 C31.47015047 32.5756161 25.64337876 31.10604536 18.25073242 30.91748047 C16.95973633 30.88009766 15.66874023 30.84271484 14.33862305 30.80419922 C12.29104524 30.75040002 10.24343095 30.69824963 8.19580078 30.64648438 C6.21400554 30.59489854 4.23236333 30.5375341 2.25073242 30.47998047 C0.47436401 30.43454102 0.47436401 30.43454102 -1.33789062 30.38818359 C-4.05004883 30.19873047 -4.05004883 30.19873047 -5.05004883 29.19873047 C-5.30385117 24.72541088 -5.23527604 20.24089587 -5.23754883 15.76123047 C-5.25591797 13.86147461 -5.25591797 13.86147461 -5.2746582 11.92333984 C-5.2765918 10.71613281 -5.27852539 9.50892578 -5.28051758 8.26513672 C-5.28462646 7.15082275 -5.28873535 6.03650879 -5.29296875 4.88842773 C-4.93294747 0.90214188 -3.94736624 0.25719652 0 0 Z " fill="#9CF265" transform="translate(155.050048828125,40.80126953125)"/>
<path d="M0 0 C2.18379332 -0.00218185 4.36707765 -0.02032863 6.55078125 -0.03930664 C7.94140452 -0.04224163 9.3320302 -0.04422572 10.72265625 -0.04516602 C11.98770996 -0.0492749 13.25276367 -0.05338379 14.55615234 -0.05761719 C17.64148637 0.17171998 19.28977871 0.48341621 21.82421875 2.18530273 C23.57421875 4.31030273 23.57421875 4.31030273 24.82421875 6.18530273 C25.62859375 5.38092773 26.43296875 4.57655273 27.26171875 3.74780273 C32.23956946 -1.23004798 37.49925818 -0.11030796 44.296875 -0.16479492 C45.80809974 -0.18131989 47.31924744 -0.20856488 48.83007812 -0.24682617 C51.0108283 -0.30177496 53.18974324 -0.3234963 55.37109375 -0.33813477 C57.33320801 -0.36786377 57.33320801 -0.36786377 59.33496094 -0.39819336 C63.66482889 0.32587496 65.0695993 1.86166898 67.82421875 5.18530273 C68.31921875 5.68030273 68.31921875 5.68030273 68.82421875 6.18530273 C69.1066345 10.42838539 69.05608931 14.68394874 69.07421875 18.93530273 C69.09484375 20.12897461 69.11546875 21.32264648 69.13671875 22.55249023 C69.14445312 24.28112305 69.14445312 24.28112305 69.15234375 26.04467773 C69.16168945 27.10138672 69.17103516 28.1580957 69.18066406 29.24682617 C68.77236927 32.61274136 67.82091784 34.46955067 65.82421875 37.18530273 C63.63671875 38.49780273 63.63671875 38.49780273 61.82421875 39.18530273 C62.79359375 39.94842773 63.76296875 40.71155273 64.76171875 41.49780273 C67.24508207 43.45279088 67.77638595 44.04180432 68.82421875 47.18530273 C69.08275246 51.13930167 69.05559806 55.09875076 69.07421875 59.06030273 C69.09484375 60.14956055 69.11546875 61.23881836 69.13671875 62.36108398 C69.14445312 63.94083008 69.14445312 63.94083008 69.15234375 65.55249023 C69.16168945 66.51268066 69.17103516 67.47287109 69.18066406 68.4621582 C68.63465153 72.63354436 66.75574035 75.25378114 63.82421875 78.18530273 C61.30227106 78.43393751 58.89379191 78.56163006 56.3671875 78.59155273 C55.2572216 78.60865295 55.2572216 78.60865295 54.12483215 78.62609863 C52.55715659 78.64500258 50.98940147 78.65806824 49.42163086 78.66577148 C47.03031315 78.68515204 44.64246047 78.74715446 42.25195312 78.81030273 C40.72788498 78.82336706 39.20379226 78.83386635 37.6796875 78.84155273 C36.96805954 78.86624634 36.25643158 78.89093994 35.52323914 78.91638184 C32.63876245 78.89068974 30.45541154 78.73027425 28.22573853 76.80517578 C26.83325195 75.14428711 26.83325195 75.14428711 24.82421875 72.18530273 C24.16429932 73.15959229 23.50437988 74.13388184 22.82446289 75.13769531 C20.48418215 77.92830023 19.92709338 78.16425482 16.10717773 78.94580078 C14.67859442 78.97839677 13.24895222 78.97704386 11.8203125 78.94702148 C11.06001236 78.95039017 10.29971222 78.95375885 9.51637268 78.95722961 C7.91522428 78.95693163 6.31401754 78.94176321 4.71313477 78.91259766 C2.26466835 78.87285062 -0.17839531 78.89191409 -2.62695312 78.91772461 C-4.18621888 78.91016649 -5.74547265 78.89921399 -7.3046875 78.88452148 C-8.03393936 78.89150558 -8.76319122 78.89848969 -9.51454163 78.90568542 C-13.13735597 78.80515463 -14.87999007 78.44432543 -17.63671875 76.03027344 C-19.42020903 72.73347582 -19.67832102 70.69963673 -19.671875 66.96655273 C-19.67251953 65.78706055 -19.67316406 64.60756836 -19.67382812 63.39233398 C-19.65384766 62.16901367 -19.63386719 60.94569336 -19.61328125 59.68530273 C-19.62037109 58.46198242 -19.62746094 57.23866211 -19.63476562 55.97827148 C-19.5624623 45.80018861 -19.5624623 45.80018861 -16.17578125 41.18530273 C-13.98828125 39.87280273 -13.98828125 39.87280273 -12.17578125 39.18530273 C-12.95953125 38.75217773 -13.74328125 38.31905273 -14.55078125 37.87280273 C-17.17578125 36.18530273 -17.17578125 36.18530273 -19.17578125 33.18530273 C-19.64696151 28.74195407 -19.54613925 24.27591145 -19.55078125 19.81030273 C-19.57527344 18.57795898 -19.59976563 17.34561523 -19.625 16.07592773 C-19.62886719 14.88741211 -19.63273437 13.69889648 -19.63671875 12.47436523 C-19.64493652 11.38849121 -19.6531543 10.30261719 -19.66162109 9.18383789 C-19.06404269 5.49566805 -17.74583969 3.84516056 -15.17578125 1.18530273 C-10.79564369 -1.00476604 -4.86994215 -0.00054645 0 0 Z M-14.17578125 6.18530273 C-14.47098307 8.98540295 -14.47098307 8.98540295 -14.40625 12.25170898 C-14.40431641 13.45891602 -14.40238281 14.66612305 -14.40039062 15.90991211 C-14.38814453 17.17641602 -14.37589844 18.44291992 -14.36328125 19.74780273 C-14.36263672 21.01817383 -14.36199219 22.28854492 -14.36132812 23.59741211 C-14.88891168 29.26615767 -14.88891168 29.26615767 -13.17578125 34.18530273 C-11.15983543 34.41958051 -9.13730725 34.59866398 -7.11328125 34.74780273 C-6.00855469 34.8315918 -4.90382813 34.91538086 -3.765625 35.00170898 C-2.91097656 35.06229492 -2.05632812 35.12288086 -1.17578125 35.18530273 C-1.21058594 36.44987305 -1.21058594 36.44987305 -1.24609375 37.73999023 C-1.26414062 38.83569336 -1.2821875 39.93139648 -1.30078125 41.06030273 C-1.33558594 42.69612305 -1.33558594 42.69612305 -1.37109375 44.36499023 C-1.47638659 47.32240783 -1.47638659 47.32240783 0.82421875 49.18530273 C2.88136707 49.17147408 2.88136707 49.17147408 4.82421875 48.18530273 C6.21659922 46.31783011 6.21659922 46.31783011 6.82421875 44.18530273 C6.49421875 43.52530273 6.16421875 42.86530273 5.82421875 42.18530273 C5.78399484 39.85231613 5.78101628 37.51823608 5.82421875 35.18530273 C6.66726562 35.13631836 7.5103125 35.08733398 8.37890625 35.03686523 C9.47460938 34.96209961 10.5703125 34.88733398 11.69921875 34.81030273 C12.78976563 34.74069336 13.8803125 34.67108398 15.00390625 34.59936523 C17.95468349 34.45276782 17.95468349 34.45276782 19.82421875 32.18530273 C19.99109323 29.60176055 19.99109323 29.60176055 19.82421875 27.18530273 C18.43203125 27.09249023 18.43203125 27.09249023 17.01171875 26.99780273 C13.82421875 26.18530273 13.82421875 26.18530273 11.88671875 23.99780273 C10.56887293 20.50938732 10.67211526 18.71842012 11.82421875 15.18530273 C14.25707008 12.75245141 16.46024792 11.78601181 19.82421875 11.18530273 C19.24969129 7.25454629 19.24969129 7.25454629 16.82421875 4.18530273 C13.84554646 3.87312955 13.84554646 3.87312955 10.35546875 3.91967773 C9.06253906 3.91709961 7.76960938 3.91452148 6.4375 3.91186523 C5.42550537 3.91814941 5.42550537 3.91814941 4.39306641 3.92456055 C2.33205718 3.93526203 0.27191956 3.92466331 -1.7890625 3.91186523 C-3.08199219 3.91444336 -4.37492187 3.91702148 -5.70703125 3.91967773 C-6.89876953 3.92193359 -8.09050781 3.92418945 -9.31835938 3.92651367 C-12.30713559 3.88969389 -12.30713559 3.88969389 -14.17578125 6.18530273 Z M30.93212891 6.08032227 C29.6934702 8.43371921 29.50495507 9.80002913 29.63671875 12.43530273 C29.69859375 13.67280273 29.76046875 14.91030273 29.82421875 16.18530273 C28.90898438 16.10151367 27.99375 16.01772461 27.05078125 15.93139648 C25.86226562 15.82956055 24.67375 15.72772461 23.44921875 15.62280273 C22.26585937 15.51838867 21.0825 15.41397461 19.86328125 15.30639648 C16.90523244 14.94376678 16.90523244 14.94376678 14.82421875 16.18530273 C14.82421875 18.16530273 14.82421875 20.14530273 14.82421875 22.18530273 C18.61280646 24.76154238 21.47241311 23.97654012 25.82421875 23.18530273 C26.81421875 23.18530273 27.80421875 23.18530273 28.82421875 23.18530273 C28.88480469 23.81178711 28.94539063 24.43827148 29.0078125 25.08374023 C29.09160156 25.90100586 29.17539063 26.71827148 29.26171875 27.56030273 C29.34292969 28.37241211 29.42414063 29.18452148 29.5078125 30.02124023 C29.71511989 32.22803079 29.71511989 32.22803079 30.82421875 34.18530273 C33.64020365 34.65429236 33.64020365 34.65429236 36.88671875 34.81030273 C37.99144531 34.88506836 39.09617187 34.95983398 40.234375 35.03686523 C41.08902344 35.08584961 41.94367188 35.13483398 42.82421875 35.18530273 C43.54593423 38.5533083 43.85360851 41.01549522 43.26171875 44.43530273 C43.04515625 45.79655273 43.04515625 45.79655273 42.82421875 47.18530273 C43.48421875 47.84530273 44.14421875 48.50530273 44.82421875 49.18530273 C47.42702443 48.86488876 47.42702443 48.86488876 49.82421875 48.18530273 C50.92650571 43.7761549 50.90076411 39.70147872 50.82421875 35.18530273 C51.98050781 35.11182617 51.98050781 35.11182617 53.16015625 35.03686523 C54.16304687 34.96209961 55.1659375 34.88733398 56.19921875 34.81030273 C57.69582031 34.70588867 57.69582031 34.70588867 59.22265625 34.59936523 C61.97930754 34.4216631 61.97930754 34.4216631 63.82421875 32.18530273 C64.13578705 29.50003655 64.13578705 29.50003655 64.08984375 26.37280273 C64.09242188 25.21522461 64.095 24.05764648 64.09765625 22.86499023 C64.08605469 21.04354492 64.08605469 21.04354492 64.07421875 19.18530273 C64.08195312 17.97100586 64.0896875 16.75670898 64.09765625 15.50561523 C64.09378906 13.76924805 64.09378906 13.76924805 64.08984375 11.99780273 C64.08758789 10.93174805 64.08533203 9.86569336 64.08300781 8.76733398 C64.08302673 6.02206813 64.08302673 6.02206813 61.82421875 4.18530273 C57.70735201 3.76438415 53.58467209 3.81370633 49.44799805 3.81469727 C47.39742896 3.81032557 45.34901586 3.77401849 43.29882812 3.73608398 C42.00912109 3.7322168 40.71941406 3.72834961 39.390625 3.72436523 C38.20412354 3.71614746 37.01762207 3.70792969 35.79516602 3.69946289 C32.73825978 3.90227747 32.73825978 3.90227747 30.93212891 6.08032227 Z M-14.17578125 46.18530273 C-14.47098307 48.98540295 -14.47098307 48.98540295 -14.40625 52.25170898 C-14.40431641 53.45891602 -14.40238281 54.66612305 -14.40039062 55.90991211 C-14.38814453 57.17641602 -14.37589844 58.44291992 -14.36328125 59.74780273 C-14.36263672 61.01817383 -14.36199219 62.28854492 -14.36132812 63.59741211 C-14.88891168 69.26615767 -14.88891168 69.26615767 -13.17578125 74.18530273 C-8.7757918 74.40363263 -4.37043313 74.37109419 0.03442383 74.37060547 C2.24905657 74.37279024 4.46318998 74.39093804 6.67773438 74.40991211 C8.07942537 74.4128463 9.48111875 74.41483092 10.8828125 74.41577148 C12.80565063 74.42193481 12.80565063 74.42193481 14.76733398 74.42822266 C17.93274881 74.50935263 17.93274881 74.50935263 19.82421875 72.18530273 C19.99109323 69.60176055 19.99109323 69.60176055 19.82421875 67.18530273 C18.71046875 66.93780273 17.59671875 66.69030273 16.44921875 66.43530273 C12.82421875 65.18530273 12.82421875 65.18530273 11.32421875 63.43530273 C10.50941902 59.76870393 11.15580716 56.52212592 12.82421875 53.18530273 C15.13828095 52.45454625 17.47250744 51.78392016 19.82421875 51.18530273 C19.54881171 47.36716826 19.54881171 47.36716826 17.82421875 44.18530273 C15.49124442 44.14437336 13.1571665 44.1428855 10.82421875 44.18530273 C10.16421875 46.49530273 9.50421875 48.80530273 8.82421875 51.18530273 C5.79650794 51.85153104 2.92982804 52.31535337 -0.17578125 52.18530273 C-3.49953328 49.69248871 -4.8651288 48.11726008 -6.17578125 44.18530273 C-10.66882707 43.76026827 -10.66882707 43.76026827 -14.17578125 46.18530273 Z M23.82421875 25.18530273 C23.7984375 25.80018555 23.77265625 26.41506836 23.74609375 27.04858398 C23.689375 27.85682617 23.63265625 28.66506836 23.57421875 29.49780273 C23.50460938 30.69856445 23.50460938 30.69856445 23.43359375 31.92358398 C22.82421875 34.18530273 22.82421875 34.18530273 21.10546875 35.93530273 C18.47486555 37.37672915 16.55564479 37.67665628 13.57421875 37.87280273 C12.6821875 37.93854492 11.79015625 38.00428711 10.87109375 38.07202148 C10.195625 38.1094043 9.52015625 38.14678711 8.82421875 38.18530273 C8.82421875 38.84530273 8.82421875 39.50530273 8.82421875 40.18530273 C9.83742188 40.22397461 9.83742188 40.22397461 10.87109375 40.26342773 C17.94433798 40.71317159 17.94433798 40.71317159 21.38671875 42.56030273 C23.72027312 46.82157594 23.6590711 51.39602082 23.82421875 56.18530273 C22.52484375 55.99967773 21.22546875 55.81405273 19.88671875 55.62280273 C17.73846332 55.28713983 17.73846332 55.28713983 15.82421875 55.18530273 C14.46803376 56.31064378 14.46803376 56.31064378 14.76171875 59.24780273 C14.78234375 60.21717773 14.80296875 61.18655273 14.82421875 62.18530273 C17.36017412 63.78201538 18.43267449 64.25056011 21.44921875 63.74780273 C22.23296875 63.56217773 23.01671875 63.37655273 23.82421875 63.18530273 C24.48421875 63.51530273 25.14421875 63.84530273 25.82421875 64.18530273 C25.82421875 63.52530273 25.82421875 62.86530273 25.82421875 62.18530273 C27.30921875 62.68030273 27.30921875 62.68030273 28.82421875 63.18530273 C28.87320313 63.81178711 28.9221875 64.43827148 28.97265625 65.08374023 C29.04742187 65.90100586 29.1221875 66.71827148 29.19921875 67.56030273 C29.26882812 68.37241211 29.3384375 69.18452148 29.41015625 70.02124023 C29.65314463 72.38864464 29.65314463 72.38864464 31.82421875 74.18530273 C34.90118671 74.48101129 34.90118671 74.48101129 38.51171875 74.41577148 C39.17002686 74.41531326 39.82833496 74.41485504 40.5065918 74.41438293 C41.89861859 74.41136154 43.29064203 74.40347854 44.68261719 74.39111328 C46.81587678 74.37287406 48.94870188 74.37060349 51.08203125 74.37084961 C57.65164181 74.7299934 57.65164181 74.7299934 63.82421875 73.18530273 C63.82421875 64.27530273 63.82421875 55.36530273 63.82421875 46.18530273 C59.10276176 43.93770895 59.10276176 43.93770895 54.82421875 44.18530273 C54.14359375 45.88686523 54.14359375 45.88686523 53.44921875 47.62280273 C51.82421875 51.18530273 51.82421875 51.18530273 49.82421875 52.18530273 C46.18501957 52.58086786 44.47773088 52.67985246 41.51171875 50.43530273 C39.8721297 48.249184 39.20627312 46.85968335 38.82421875 44.18530273 C35.40765851 44.01852991 35.40765851 44.01852991 31.82421875 44.18530273 C29.58097039 45.99723279 29.58097039 45.99723279 29.62890625 48.56811523 C29.65210937 49.47303711 29.6753125 50.37795898 29.69921875 51.31030273 C29.72628906 52.67541992 29.72628906 52.67541992 29.75390625 54.06811523 C29.77710937 54.76678711 29.8003125 55.46545898 29.82421875 56.18530273 C28.50421875 55.85530273 27.18421875 55.52530273 25.82421875 55.18530273 C25.36239828 50.47473397 25.13384644 47.25426631 27.76171875 43.18530273 C31.75165987 40.5796269 35.13690329 40.29763491 39.82421875 40.18530273 C39.82421875 39.85530273 39.82421875 39.52530273 39.82421875 39.18530273 C38.81101562 39.05575195 38.81101562 39.05575195 37.77734375 38.92358398 C30.52170242 37.78071562 30.52170242 37.78071562 27.26171875 34.99780273 C25.5746238 31.69696478 25.11271865 28.86367646 24.82421875 25.18530273 C24.49421875 25.18530273 24.16421875 25.18530273 23.82421875 25.18530273 Z M23.82421875 66.18530273 C24.82421875 68.18530273 24.82421875 68.18530273 24.82421875 68.18530273 Z " fill="#A5E779" transform="translate(75.17578125,80.814697265625)"/>
<path d="M0 0 C0.68659698 -0.00574036 1.37319397 -0.01148071 2.08059692 -0.01739502 C3.52788607 -0.0214628 4.97528685 -0.01049568 6.42236328 0.01464844 C8.62135885 0.04670802 10.81295501 0.01499037 13.01171875 -0.0234375 C24.70515197 -0.05342322 24.70515197 -0.05342322 29.265625 3.84375 C30.08804688 4.81828125 30.91046875 5.7928125 31.7578125 6.796875 C32.3765625 5.9925 32.9953125 5.188125 33.6328125 4.359375 C35.7578125 1.796875 35.7578125 1.796875 37.7578125 0.796875 C42.27041555 0.5379815 46.78681807 0.52582786 51.3059082 0.50170898 C53.55156823 0.48451849 55.79574683 0.440635 58.04101562 0.39648438 C59.47394753 0.38635499 60.90689193 0.37783965 62.33984375 0.37109375 C64.29241089 0.34921997 64.29241089 0.34921997 66.28442383 0.3269043 C70.30711195 0.87119857 71.91820986 1.95793296 74.7578125 4.796875 C76.85023652 8.98172304 75.98717101 14.44898401 76.0078125 19.046875 C76.0284375 20.17996094 76.0490625 21.31304687 76.0703125 22.48046875 C76.12096621 33.28237138 76.12096621 33.28237138 72.7578125 37.796875 C67.8148948 41.10241987 61.61990371 40.1306948 55.91333008 40.11254883 C53.83035887 40.10939023 51.7488113 40.13286019 49.66601562 40.15820312 C48.34666016 40.15884766 47.02730469 40.15949219 45.66796875 40.16015625 C44.46277588 40.16313721 43.25758301 40.16611816 42.01586914 40.16918945 C38.46479087 39.76338995 36.59663353 38.92784421 33.7578125 36.796875 C32.4453125 34.609375 32.4453125 34.609375 31.7578125 32.796875 C30.9946875 33.76625 30.2315625 34.735625 29.4453125 35.734375 C27.49032435 38.21773832 26.90131091 38.7490422 23.7578125 39.796875 C19.50425746 40.04657762 15.2486698 40.06760469 10.98876953 40.09204102 C9.58827619 40.10356838 8.18782705 40.1240327 6.78759766 40.15356445 C4.75913792 40.19633174 2.7319801 40.21241964 0.703125 40.22265625 C-0.50843262 40.23723877 -1.71999023 40.25182129 -2.96826172 40.2668457 C-6.8552748 39.70886657 -8.47491851 38.52510131 -11.2421875 35.796875 C-13.45884834 31.36355332 -12.5616968 25.4149232 -12.6171875 20.546875 C-12.65457031 19.31839844 -12.69195312 18.08992188 -12.73046875 16.82421875 C-12.74207031 15.63441406 -12.75367188 14.44460937 -12.765625 13.21875 C-12.795354 11.58824707 -12.795354 11.58824707 -12.82568359 9.92480469 C-11.42962246 2.44098241 -7.20585185 0.03840195 0 0 Z M-7.2421875 6.796875 C-7.34201808 8.78444528 -7.37299503 10.7755502 -7.375 12.765625 C-7.37628906 13.97605469 -7.37757812 15.18648437 -7.37890625 16.43359375 C-7.37503906 17.70847656 -7.37117188 18.98335937 -7.3671875 20.296875 C-7.37105469 21.57175781 -7.37492187 22.84664062 -7.37890625 24.16015625 C-7.37761719 25.37058594 -7.37632813 26.58101562 -7.375 27.828125 C-7.37387207 28.94767578 -7.37274414 30.06722656 -7.37158203 31.22070312 C-7.53435118 33.72829302 -7.53435118 33.72829302 -6.2421875 34.796875 C-1.84260503 35.03903365 2.56250724 35.02537829 6.96801758 35.03710938 C9.18283565 35.04682029 11.39672791 35.0778329 13.61132812 35.109375 C15.0130153 35.1159043 16.41470914 35.12115506 17.81640625 35.125 C19.09829834 35.1343457 20.38019043 35.14369141 21.70092773 35.15332031 C22.70969971 35.03569336 23.71847168 34.91806641 24.7578125 34.796875 C26.96325684 31.4887085 27.01408385 30.42915668 27.0234375 26.578125 C27.02601562 25.56363281 27.02859375 24.54914063 27.03125 23.50390625 C27.01964844 21.91642578 27.01964844 21.91642578 27.0078125 20.296875 C27.01554687 19.23855469 27.02328125 18.18023437 27.03125 17.08984375 C27.02738281 15.56810547 27.02738281 15.56810547 27.0234375 14.015625 C27.02118164 13.08685547 27.01892578 12.15808594 27.01660156 11.20117188 C26.91706395 8.53474267 26.91706395 8.53474267 24.7578125 5.796875 C21.5707664 5.36170441 21.5707664 5.36170441 17.81640625 5.46875 C17.13353043 5.47062317 16.4506546 5.47249634 15.74708557 5.47442627 C14.30375282 5.48114957 12.86043837 5.49506977 11.41723633 5.515625 C9.20051265 5.54680186 6.98449937 5.55659674 4.76757812 5.5625 C-1.73442733 4.95062294 -1.73442733 4.95062294 -7.2421875 6.796875 Z M37.7578125 5.796875 C36.40733211 8.49783577 36.62817673 10.62414017 36.625 13.64453125 C36.62371094 14.80662109 36.62242188 15.96871094 36.62109375 17.16601562 C36.62496094 18.38482422 36.62882812 19.60363281 36.6328125 20.859375 C36.62894531 22.08205078 36.62507813 23.30472656 36.62109375 24.56445312 C36.62238281 25.72525391 36.62367187 26.88605469 36.625 28.08203125 C36.62612793 29.15332275 36.62725586 30.22461426 36.62841797 31.32836914 C36.47883504 33.74093851 36.47883504 33.74093851 37.7578125 34.796875 C40.12179718 34.8976562 42.45592561 34.93660715 44.8203125 34.9296875 C45.52679932 34.93064423 46.23328613 34.93160095 46.96118164 34.93258667 C48.45752043 34.93326833 49.95386217 34.93141505 51.45019531 34.92724609 C53.74811407 34.92189757 56.04583736 34.92719151 58.34375 34.93359375 C59.79427127 34.93293297 61.24479241 34.9316518 62.6953125 34.9296875 C63.7328064 34.93272385 63.7328064 34.93272385 64.79125977 34.93582153 C68.05516888 35.19918233 68.05516888 35.19918233 70.7578125 33.796875 C70.84539253 31.79722518 70.86477826 29.7945139 70.85546875 27.79296875 C70.85224609 26.57802734 70.84902344 25.36308594 70.84570312 24.11132812 C70.83732422 22.83193359 70.82894531 21.55253906 70.8203125 20.234375 C70.81580078 18.95111328 70.81128906 17.66785156 70.80664062 16.34570312 C70.79480795 13.16271478 70.77832318 9.97981738 70.7578125 6.796875 C67.78421801 5.31007775 65.09482071 5.68574895 61.78125 5.69921875 C61.0960025 5.7006337 60.410755 5.70204865 59.70474243 5.70350647 C57.51405489 5.70910825 55.3234692 5.72166094 53.1328125 5.734375 C51.64843898 5.73938978 50.16406385 5.74395272 48.6796875 5.74804688 C45.03902935 5.75907823 41.39843086 5.77634401 37.7578125 5.796875 Z " fill="#A6EB78" transform="translate(68.2421875,40.203125)"/>
<path d="M0 0 C3.53467891 4.42857513 2.4710787 10.63682702 2.47436523 15.98730469 C2.48661133 17.02886719 2.49885742 18.07042969 2.51147461 19.14355469 C2.5134082 20.15160156 2.5153418 21.15964844 2.51733398 22.19824219 C2.52144287 23.11653809 2.52555176 24.03483398 2.52978516 24.98095703 C2.13218365 29.28784053 1.10847077 31.76094208 -1.91064453 34.8894043 C-6.78767571 37.88768019 -11.99148673 37.24116805 -17.578125 37.1887207 C-19.64234967 37.17486032 -21.70202737 37.20893758 -23.76586914 37.24707031 C-34.85951802 37.23071604 -34.85951802 37.23071604 -38.59204102 34.20214844 C-40.71313477 31.61230469 -40.71313477 31.61230469 -41.71313477 29.61230469 C-42.47625977 30.58167969 -43.23938477 31.55105469 -44.02563477 32.54980469 C-45.98062291 35.03316801 -46.56963635 35.56447188 -49.71313477 36.61230469 C-53.8250852 36.83895303 -57.93717948 36.84055724 -62.05493164 36.85253906 C-64.07423202 36.86223791 -66.09251088 36.89327225 -68.11157227 36.92480469 C-70.02969727 36.93253906 -70.02969727 36.93253906 -71.98657227 36.94042969 C-73.74106689 36.95444824 -73.74106689 36.95444824 -75.53100586 36.96875 C-79.06664026 36.57270687 -80.89252637 35.74509695 -83.71313477 33.61230469 C-87.08001936 28.5619778 -86.12391377 22.6693655 -86.15063477 16.73730469 C-86.19994141 14.81724609 -86.19994141 14.81724609 -86.25024414 12.85839844 C-86.25733398 11.62476563 -86.26442383 10.39113281 -86.27172852 9.12011719 C-86.28518311 7.99234863 -86.2986377 6.86458008 -86.3125 5.70263672 C-85.50135313 1.52035686 -84.14162242 0.10090695 -80.71313477 -2.38769531 C-77.97551982 -2.87665646 -75.87203459 -3.0694673 -73.14672852 -3.01660156 C-72.43082047 -3.01901352 -71.71491241 -3.02142548 -70.97731018 -3.02391052 C-69.47033118 -3.02293477 -67.96331513 -3.00960573 -66.45654297 -2.98461914 C-64.1534642 -2.95023755 -61.8542114 -2.96398612 -59.55102539 -2.98339844 C-58.08291015 -2.97650108 -56.61480478 -2.96682968 -55.14672852 -2.95410156 C-54.46122421 -2.95906143 -53.77571991 -2.9640213 -53.06944275 -2.96913147 C-49.75534702 -2.88766682 -48.00610262 -2.61909192 -45.37353516 -0.53979492 C-44.08666999 1.12815338 -42.881707 2.85944633 -41.71313477 4.61230469 C-41.28000977 3.82855469 -40.84688477 3.04480469 -40.40063477 2.23730469 C-38.71313477 -0.38769531 -38.71313477 -0.38769531 -35.71313477 -2.38769531 C-31.88497712 -2.95041764 -28.01502006 -2.99396892 -24.15063477 -3.13769531 C-23.10327148 -3.193125 -22.0559082 -3.24855469 -20.97680664 -3.30566406 C-4.8952556 -3.96531749 -4.8952556 -3.96531749 0 0 Z M-80.71313477 3.61230469 C-81.00833659 6.4124049 -81.00833659 6.4124049 -80.94360352 9.67871094 C-80.94166992 10.88591797 -80.93973633 12.093125 -80.93774414 13.33691406 C-80.92549805 14.60341797 -80.91325195 15.86992187 -80.90063477 17.17480469 C-80.89999023 18.44517578 -80.8993457 19.71554688 -80.89868164 21.02441406 C-81.42626519 26.69315962 -81.42626519 26.69315962 -79.71313477 31.61230469 C-75.3135523 31.85446334 -70.90844003 31.84080798 -66.50292969 31.85253906 C-64.28811162 31.86224998 -62.07421936 31.89326259 -59.85961914 31.92480469 C-58.45793196 31.93133399 -57.05623813 31.93658475 -55.65454102 31.94042969 C-54.37264893 31.94977539 -53.09075684 31.95912109 -51.77001953 31.96875 C-50.76124756 31.85112305 -49.75247559 31.73349609 -48.71313477 31.61230469 C-45.5981656 26.93985094 -46.38462619 22.10644715 -46.40063477 16.61230469 C-46.38452148 15.50628906 -46.3684082 14.40027344 -46.35180664 13.26074219 C-46.35116211 12.20113281 -46.35051758 11.14152344 -46.34985352 10.04980469 C-46.34687256 9.07914063 -46.3438916 8.10847656 -46.34082031 7.10839844 C-46.54592572 4.61984428 -46.54592572 4.61984428 -47.82543945 2.79516602 C-50.64474337 1.02854321 -52.97550553 1.2407224 -56.27954102 1.24902344 C-57.56924805 1.24966797 -58.85895508 1.2503125 -60.18774414 1.25097656 C-61.19357544 1.26342407 -61.19357544 1.26342407 -62.21972656 1.27612305 C-64.27196364 1.2997624 -66.32290509 1.29667616 -68.37524414 1.29003906 C-75.1465278 0.78444225 -75.1465278 0.78444225 -80.71313477 3.61230469 Z M-36.71313477 3.61230469 C-37.02470307 6.29757087 -37.02470307 6.29757087 -36.97875977 9.42480469 C-36.98133789 10.58238281 -36.98391602 11.73996094 -36.98657227 12.93261719 C-36.97883789 14.14691406 -36.97110352 15.36121094 -36.96313477 16.61230469 C-36.97086914 17.82660156 -36.97860352 19.04089844 -36.98657227 20.29199219 C-36.98399414 21.44957031 -36.98141602 22.60714844 -36.97875977 23.79980469 C-36.97650391 24.86585938 -36.97424805 25.93191406 -36.97192383 27.03027344 C-36.97194275 29.7755393 -36.97194275 29.7755393 -34.71313477 31.61230469 C-31.52194531 31.9081496 -31.52194531 31.9081496 -27.77172852 31.84277344 C-26.74741478 31.84208611 -26.74741478 31.84208611 -25.70240784 31.84138489 C-24.25910708 31.8383636 -22.81580954 31.83048091 -21.37255859 31.81811523 C-19.15588923 31.79984799 -16.93963719 31.79760561 -14.72290039 31.79785156 C-8.22097892 32.4364294 -8.22097892 32.4364294 -2.71313477 30.61230469 C-2.45933242 26.1389851 -2.52790755 21.65447009 -2.52563477 17.17480469 C-2.51338867 15.90830078 -2.50114258 14.64179688 -2.48852539 13.33691406 C-2.4865918 12.12970703 -2.4846582 10.9225 -2.48266602 9.67871094 C-2.47855713 8.56439697 -2.47444824 7.45008301 -2.47021484 6.30200195 C-2.43726304 3.46108508 -2.43726304 3.46108508 -4.71313477 1.61230469 C-7.78959217 1.29995576 -7.78959217 1.29995576 -11.40063477 1.34667969 C-12.05894287 1.34476624 -12.71725098 1.34285278 -13.39550781 1.34088135 C-14.78752016 1.33952019 -16.17954523 1.34321186 -17.5715332 1.3515625 C-19.70496065 1.36226369 -21.83754607 1.35166563 -23.97094727 1.33886719 C-25.32251163 1.3401888 -26.67407547 1.34275122 -28.02563477 1.34667969 C-29.87608398 1.35006348 -29.87608398 1.35006348 -31.76391602 1.35351562 C-34.83383055 1.30460702 -34.83383055 1.30460702 -36.71313477 3.61230469 Z " fill="#A1E675" transform="translate(141.713134765625,163.3876953125)"/>
<path d="M0 0 C4.41067124 -0.14942337 8.81996481 -0.25771011 13.23242188 -0.32958984 C14.73007906 -0.35958169 16.22756329 -0.40039126 17.72460938 -0.45263672 C31.70868953 -0.92809544 31.70868953 -0.92809544 36.98046875 2.20703125 C40.13951039 5.17251919 40.58993627 7.85212298 40.95703125 12.09765625 C40.95041557 14.41976123 40.90090957 16.74206921 40.8125 19.0625 C40.81830078 20.23361328 40.82410156 21.40472656 40.83007812 22.61132812 C40.66268061 32.07738784 40.66268061 32.07738784 37.59375 35.2578125 C35.27905643 36.81256149 33.75060788 37.6943769 31 38 C31 37.01 31 36.02 31 35 C21.43 35 11.86 35 2 35 C2 34.67 2 34.34 2 34 C16.85 33.505 16.85 33.505 32 33 C33.26309358 30.47381284 33.12940142 28.70352699 33.1328125 25.87890625 C33.13410156 24.86119141 33.13539062 23.84347656 33.13671875 22.79492188 C33.13285156 21.72822266 33.12898438 20.66152344 33.125 19.5625 C33.12886719 18.49966797 33.13273437 17.43683594 33.13671875 16.34179688 C33.13542969 15.32279297 33.13414063 14.30378906 33.1328125 13.25390625 C33.13112061 11.85120483 33.13112061 11.85120483 33.12939453 10.42016602 C33.09959771 7.85691378 33.09959771 7.85691378 32 5 C32.33 4.34 32.66 3.68 33 3 C32.14245117 2.98018066 31.28490234 2.96036133 30.40136719 2.93994141 C27.21052358 2.86170479 24.0200526 2.77500657 20.82958984 2.68261719 C19.45044757 2.64440662 18.07120833 2.60953998 16.69189453 2.578125 C14.70583033 2.53230376 12.72008321 2.47333737 10.734375 2.4140625 C8.94338379 2.36693115 8.94338379 2.36693115 7.11621094 2.31884766 C4.19225461 2.0196713 2.47272389 1.52538162 0 0 Z " fill="#A4E681" transform="translate(61,41)"/>
<path d="M0 0 C1.08809212 0.01061211 1.08809212 0.01061211 2.19816589 0.0214386 C4.50167578 0.04929719 6.80270126 0.11200934 9.10546875 0.17578125 C10.67249078 0.20087562 12.23955115 0.22368681 13.80664062 0.24414062 C17.63636531 0.29909444 21.46424672 0.38529899 25.29296875 0.48828125 C25.29296875 0.81828125 25.29296875 1.14828125 25.29296875 1.48828125 C14.73296875 1.48828125 4.17296875 1.48828125 -6.70703125 1.48828125 C-6.70703125 2.14828125 -6.70703125 2.80828125 -6.70703125 3.48828125 C3.52296875 3.48828125 13.75296875 3.48828125 24.29296875 3.48828125 C23.96296875 4.14828125 23.63296875 4.80828125 23.29296875 5.48828125 C22.41970947 5.48304443 21.5464502 5.47780762 20.64672852 5.47241211 C17.41707602 5.45540374 14.1874463 5.44284756 10.95776367 5.43334961 C9.55801647 5.42831045 8.15827455 5.42147909 6.75854492 5.4128418 C4.75051098 5.40075805 2.74243918 5.39558318 0.734375 5.390625 C-0.47532959 5.38538818 -1.68503418 5.38015137 -2.93139648 5.37475586 C-5.61515142 5.1705284 -5.61515142 5.1705284 -6.70703125 6.48828125 C-6.79461128 8.48793107 -6.81399701 10.49064235 -6.8046875 12.4921875 C-6.80218994 13.5860376 -6.79969238 14.6798877 -6.79711914 15.80688477 C-6.78801514 17.20737061 -6.77891113 18.60785645 -6.76953125 20.05078125 C-6.74890625 24.48515625 -6.72828125 28.91953125 -6.70703125 33.48828125 C3.19296875 33.81828125 13.09296875 34.14828125 23.29296875 34.48828125 C23.29296875 34.81828125 23.29296875 35.14828125 23.29296875 35.48828125 C13.72296875 35.81828125 4.15296875 36.14828125 -5.70703125 36.48828125 C-6.03703125 37.14828125 -6.36703125 37.80828125 -6.70703125 38.48828125 C-9.86818901 37.11844622 -10.69974045 36.49921745 -12.70703125 33.48828125 C-13.20580584 28.8788887 -13.12365995 24.24670909 -13.14453125 19.61328125 C-13.19383789 17.69322266 -13.19383789 17.69322266 -13.24414062 15.734375 C-13.25123047 14.50074219 -13.25832031 13.26710937 -13.265625 11.99609375 C-13.27907959 10.8683252 -13.29253418 9.74055664 -13.30639648 8.57861328 C-11.86315327 1.13723949 -6.81268168 -0.25259171 0 0 Z " fill="#AEE286" transform="translate(68.70703125,160.51171875)"/>
<path d="M0 0 C1.22589844 0.01353516 1.22589844 0.01353516 2.4765625 0.02734375 C3.41628906 0.04474609 3.41628906 0.04474609 4.375 0.0625 C3.75 1.9375 3.75 1.9375 2.375 4.0625 C0.395 4.7225 -1.585 5.3825 -3.625 6.0625 C-3.955 14.6425 -4.285 23.2225 -4.625 32.0625 C-4.955 32.0625 -5.285 32.0625 -5.625 32.0625 C-5.955 23.8125 -6.285 15.5625 -6.625 7.0625 C-6.955 15.6425 -7.285 24.2225 -7.625 33.0625 C-8.285 33.0625 -8.945 33.0625 -9.625 33.0625 C-9.7122253 28.66679206 -9.76546869 24.27130729 -9.8125 19.875 C-9.83763672 18.62912109 -9.86277344 17.38324219 -9.88867188 16.09960938 C-9.89833984 14.89755859 -9.90800781 13.69550781 -9.91796875 12.45703125 C-9.9336792 11.35206299 -9.94938965 10.24709473 -9.96557617 9.10864258 C-9.58154631 5.67384644 -8.67313635 3.81959465 -6.625 1.0625 C-4.21954362 -0.14022819 -2.67503047 -0.03821472 0 0 Z " fill="#ACE482" transform="translate(65.625,120.9375)"/>
<path d="M0 0 C0 2.92859687 -0.09992412 5.83563156 -0.21875 8.76171875 C-0.26386719 9.87998047 -0.30898437 10.99824219 -0.35546875 12.15039062 C-0.40316406 13.31763672 -0.45085937 14.48488281 -0.5 15.6875 C-0.54769531 16.86634766 -0.59539062 18.04519531 -0.64453125 19.25976562 C-0.76248403 22.17319929 -0.88099566 25.08660913 -1 28 C0.24704712 27.98428955 0.24704712 27.98428955 1.51928711 27.96826172 C4.64476471 27.9338943 7.77014502 27.90896341 10.89575195 27.89013672 C12.89736377 27.87529755 14.89888812 27.84986639 16.90039062 27.82421875 C34.99928429 27.73304044 34.99928429 27.73304044 41.5 32.875 C42.1496875 33.36742187 42.799375 33.85984375 43.46875 34.3671875 C45.21031755 36.22426718 45.61251384 37.51363045 46 40 C45.45472656 39.60167969 44.90945312 39.20335937 44.34765625 38.79296875 C43.59355469 38.26316406 42.83945313 37.73335937 42.0625 37.1875 C41.33160156 36.66542969 40.60070312 36.14335938 39.84765625 35.60546875 C31.17903846 30.71822333 22.81793238 30.51095554 13 30.375 C10.37479187 30.32698175 7.75001038 30.26980623 5.125 30.2109375 C3.39636719 30.18459229 3.39636719 30.18459229 1.6328125 30.15771484 C-1 30 -1 30 -2 29 C-2.25380234 24.52668042 -2.18522721 20.0421654 -2.1875 15.5625 C-2.20586914 13.66274414 -2.20586914 13.66274414 -2.22460938 11.72460938 C-2.22654297 10.51740234 -2.22847656 9.31019531 -2.23046875 8.06640625 C-2.23457764 6.95209229 -2.23868652 5.83777832 -2.24291992 4.68969727 C-2 2 -2 2 0 0 Z " fill="#AAE587" transform="translate(152,41)"/>
<path d="M0 0 C1.05904289 0.00424484 1.05904289 0.00424484 2.13948059 0.00857544 C4.39133758 0.01975786 6.64279477 0.0448583 8.89453125 0.0703125 C10.42252029 0.08034483 11.95051558 0.08947024 13.47851562 0.09765625 C17.22150788 0.11969078 20.96420181 0.15420683 24.70703125 0.1953125 C24.70703125 1.1853125 24.70703125 2.1753125 24.70703125 3.1953125 C23.81395264 3.2046582 22.92087402 3.21400391 22.00073242 3.22363281 C18.68467963 3.26766554 15.36992186 3.32928111 12.05444336 3.40283203 C10.61999442 3.43104432 9.18538996 3.45225774 7.75073242 3.46630859 C5.68717823 3.48773699 3.62549419 3.53437717 1.5625 3.5859375 C0.32137451 3.60688477 -0.91975098 3.62783203 -2.19848633 3.64941406 C-5.39355097 3.89614645 -5.39355097 3.89614645 -7.22143555 6.23339844 C-7.5750415 6.88083008 -7.92864746 7.52826172 -8.29296875 8.1953125 C-8.29296875 7.2053125 -8.29296875 6.2153125 -8.29296875 5.1953125 C-9.61296875 5.5253125 -10.93296875 5.8553125 -12.29296875 6.1953125 C-9.67575371 0.1555855 -6.05965922 -0.09138547 0 0 Z " fill="#A8EB7D" transform="translate(113.29296875,80.8046875)"/>
<path d="M0 0 C0.33 0 0.66 0 1 0 C1.495 9.405 1.495 9.405 2 19 C2.33 13.39 2.66 7.78 3 2 C3.33 2 3.66 2 4 2 C4.11611395 6.24977046 4.18722349 10.49913337 4.25 14.75 C4.30027344 16.55984375 4.30027344 16.55984375 4.3515625 18.40625 C4.36445313 19.56640625 4.37734375 20.7265625 4.390625 21.921875 C4.41157227 22.99018555 4.43251953 24.05849609 4.45410156 25.15917969 C4 28 4 28 2.46484375 30.35546875 C-0.91743686 32.61210922 -3.90455551 32.50265204 -7.828125 32.390625 C-8.95163361 32.38213531 -8.95163361 32.38213531 -10.09783936 32.37347412 C-12.482552 32.35114057 -14.86574408 32.30095386 -17.25 32.25 C-18.86976991 32.22993091 -20.48956346 32.21168085 -22.109375 32.1953125 C-26.07349966 32.15128624 -30.03649232 32.08228298 -34 32 C-34 31.67 -34 31.34 -34 31 C-23.11 31 -12.22 31 -1 31 C-1 30.34 -1 29.68 -1 29 C-1.66 28.67 -2.32 28.34 -3 28 C-2.01 27.67 -1.02 27.34 0 27 C0 18.09 0 9.18 0 0 Z " fill="#96D270" transform="translate(139,127)"/>
<path d="M0 0 C1.875 0.3125 1.875 0.3125 4 1 C6.32891212 4.49336818 6.23551143 5.86007865 6.1953125 9.98046875 C6.18886719 11.14384766 6.18242187 12.30722656 6.17578125 13.50585938 C6.15902344 14.72080078 6.14226562 15.93574219 6.125 17.1875 C6.11597656 18.41404297 6.10695312 19.64058594 6.09765625 20.90429688 C6.07406017 23.93639295 6.04113841 26.96809938 6 30 C5.67 30 5.34 30 5 30 C4.505 21.09 4.505 21.09 4 12 C3.67 18.27 3.34 24.54 3 31 C2.67 31 2.34 31 2 31 C1.97494385 30.21761963 1.9498877 29.43523926 1.92407227 28.62915039 C1.80850212 25.10675051 1.68560051 21.5846444 1.5625 18.0625 C1.52318359 16.83080078 1.48386719 15.59910156 1.44335938 14.33007812 C1.40146484 13.16025391 1.35957031 11.99042969 1.31640625 10.78515625 C1.27974854 9.70113525 1.24309082 8.61711426 1.20532227 7.50024414 C1.27635735 5.060737 1.27635735 5.060737 0 4 C-2.21687994 3.84126045 -4.43855298 3.74866163 -6.66015625 3.68359375 C-7.65685585 3.6524221 -7.65685585 3.6524221 -8.6736908 3.62062073 C-10.80318543 3.55506342 -12.93280668 3.49621215 -15.0625 3.4375 C-16.50326847 3.39432061 -17.94402399 3.35070651 -19.38476562 3.30664062 C-22.9230404 3.19937607 -26.46145869 3.09812629 -30 3 C-30 2.67 -30 2.34 -30 2 C-15.15 1.505 -15.15 1.505 0 1 C0 0.67 0 0.34 0 0 Z " fill="#98DC71" transform="translate(137,82)"/>
<path d="M0 0 C0.56960449 0.21438721 1.13920898 0.42877441 1.72607422 0.6496582 C8.96090351 3.12245807 15.52924378 3.35972936 23.125 3.1875 C24.27226563 3.17396484 25.41953125 3.16042969 26.6015625 3.14648438 C29.40154958 3.11148454 32.20051217 3.06238859 35 3 C35.495 4.485 35.495 4.485 36 6 C31.81912848 6.07441989 27.6386127 6.12872818 23.45727539 6.16479492 C22.03630859 6.1798376 20.61538787 6.20027704 19.19458008 6.22631836 C17.14653114 6.26290347 15.0990985 6.27977097 13.05078125 6.29296875 C11.20480347 6.31653442 11.20480347 6.31653442 9.3215332 6.34057617 C5.70424499 5.96967451 3.84299793 5.23651787 1 3 C0.67 2.01 0.34 1.02 0 0 Z " fill="#A2F569" transform="translate(101,74)"/>
<path d="M0 0 C5.04083308 5.04083308 5.58419116 14.15138377 6 21 C6.06445312 21.66 6.12890625 22.32 6.1953125 23 C6.78716145 33.41654146 3.20152652 45.08309739 -2 54 C-2.33 54 -2.66 54 -3 54 C-3.19842856 49.73378599 -2.68560261 46.89795604 -1 43 C-1 42.01 -1 41.02 -1 40 C-0.01 40 0.98 40 2 40 C3.57477078 28.58291181 3.66969986 17.9310152 0.65625 6.7421875 C0 4 0 4 0 0 Z " fill="#9EE27C" transform="translate(227,75)"/>
<path d="M0 0 C0.99 1.32 1.98 2.64 3 4 C2.01 4.33 1.02 4.66 0 5 C0 6.98 0 8.96 0 11 C1.32 11 2.64 11 4 11 C8.77777778 11.77777778 8.77777778 11.77777778 10 13 C10.14115161 15.67058851 10.04247107 18.32432238 10 21 C9.34 20.67 8.68 20.34 8 20 C8 17.69 8 15.38 8 13 C5.69 13.33 3.38 13.66 1 14 C1 14.66 1 15.32 1 16 C-1.75220373 15.13088303 -3.5656698 14.5527839 -5.375 12.25 C-6.22428999 9.19255605 -5.77944836 7.0528394 -5 4 C-3 1 -3 1 0 0 Z " fill="#B2EE89" transform="translate(91,132)"/>
<path d="M0 0 C11.60287491 -0.76446467 11.60287491 -0.76446467 16.3125 1.8125 C18.79160374 6.49525151 18.40909036 10.80909787 18 16 C14.62537285 15.45276317 12.91765 14.9451 10 13 C10.33 12.34 10.66 11.68 11 11 C11.99 11 12.98 11 14 11 C13.34 9.02 12.68 7.04 12 5 C9.69 4.67 7.38 4.34 5 4 C5 3.67 5 3.34 5 3 C6.98 2.67 8.96 2.34 11 2 C7.7 1.67 4.4 1.34 1 1 C0.67 1.66 0.34 2.32 0 3 C0 2.01 0 1.02 0 0 Z " fill="#A1DE7A" transform="translate(81,121)"/>
<path d="M0 0 C0.10933628 1.39403756 0.18619553 2.79063776 0.25 4.1875 C0.29640625 4.96480469 0.3428125 5.74210938 0.390625 6.54296875 C-0.16776924 10.05526855 -1.46296067 11.52598008 -4 14 C-7.39160156 14.56762695 -7.39160156 14.56762695 -11.390625 14.48828125 C-12.09523865 14.48120651 -12.79985229 14.47413177 -13.52581787 14.46684265 C-15.76830891 14.43893357 -18.00826871 14.37621287 -20.25 14.3125 C-21.77340134 14.28741211 -23.29684197 14.26459978 -24.8203125 14.24414062 C-28.54769249 14.18912213 -32.27359906 14.10287804 -36 14 C-36 13.67 -36 13.34 -36 13 C-26.1 13 -16.2 13 -6 13 C-6.33 12.01 -6.66 11.02 -7 10 C-6.34 9.34 -5.68 8.68 -5 8 C-4.35232207 5.42938689 -4.35232207 5.42938689 -4 3 C-4.99 3 -5.98 3 -7 3 C-7 2.34 -7 1.68 -7 1 C-4.50935112 0.31292445 -2.62113708 0 0 0 Z " fill="#9AD675" transform="translate(99,145)"/>
<path d="M0 0 C0.33 0 0.66 0 1 0 C1.33 7.26 1.66 14.52 2 22 C2.66 22.33 3.32 22.66 4 23 C3.25 27.75 3.25 27.75 1 30 C-0.32 30 -1.64 30 -3 30 C-3 29.01 -3 28.02 -3 27 C-12.24 27 -21.48 27 -31 27 C-31 26.67 -31 26.34 -31 26 C-16.15 25.505 -16.15 25.505 -1 25 C-0.67 16.75 -0.34 8.5 0 0 Z " fill="#A7E487" transform="translate(139,49)"/>
<path d="M0 0 C0.33 0 0.66 0 1 0 C1 1.98 1 3.96 1 6 C1.66 6 2.32 6 3 6 C3.33 5.34 3.66 4.68 4 4 C4.33 4.99 4.66 5.98 5 7 C8.48444977 8.16148326 10.44120982 7.61892003 14 7 C15 8 15 8 15.09765625 10.06640625 C15.08605469 10.89011719 15.07445313 11.71382812 15.0625 12.5625 C15.05347656 13.38878906 15.04445313 14.21507813 15.03515625 15.06640625 C15.02355469 15.70449219 15.01195313 16.34257813 15 17 C14.67 17 14.34 17 14 17 C14 14.69 14 12.38 14 10 C13.34 10 12.68 10 12 10 C12 12.31 12 14.62 12 17 C11.34 17.33 10.68 17.66 10 18 C10 15.69 10 13.38 10 11 C8.906875 11.226875 7.81375 11.45375 6.6875 11.6875 C3 12 3 12 1.125 10.9375 C-0.40630926 8.30024516 -0.74794241 6.02469108 -1 3 C-0.67 2.01 -0.34 1.02 0 0 Z " fill="#AAEC7D" transform="translate(86,96)"/>
<path d="M0 0 C3.63 0 7.26 0 11 0 C11.33 0.66 11.66 1.32 12 2 C10.741875 2.020625 9.48375 2.04125 8.1875 2.0625 C5.97583945 2.23888954 5.97583945 2.23888954 4 3 C2.10040371 6.37668094 2.10040371 6.37668094 1 10 C-2.4352048 12.29013653 -3.985331 12.17842973 -8 12 C-8.33 10.68 -8.66 9.36 -9 8 C-6.03 7.34 -3.06 6.68 0 6 C0 4.02 0 2.04 0 0 Z " fill="#A2E973" transform="translate(127,122)"/>
<path d="M0 0 C-0.33 3.3 -0.66 6.6 -1 10 C-2.258125 10.04125 -3.51625 10.0825 -4.8125 10.125 C-5.52019531 10.14820312 -6.22789063 10.17140625 -6.95703125 10.1953125 C-9 10 -9 10 -12 8 C-11.01 8 -10.02 8 -9 8 C-9 5.69 -9 3.38 -9 1 C-2.25 0 -2.25 0 0 0 Z " fill="#9EED6F" transform="translate(105,86)"/>
<path d="M0 0 C0.33 0 0.66 0 1 0 C1.33 4.62 1.66 9.24 2 14 C2.33 14 2.66 14 3 14 C3.03738281 14.84304687 3.07476562 15.68609375 3.11328125 16.5546875 C3.17902344 17.65039062 3.24476562 18.74609375 3.3125 19.875 C3.37050781 20.96554688 3.42851563 22.05609375 3.48828125 23.1796875 C3.65714844 24.11039063 3.82601562 25.04109375 4 26 C7.53564463 28.35709642 9.22025255 28.30009735 13.41796875 28.4140625 C14.67158203 28.45273438 15.92519531 28.49140625 17.21679688 28.53125 C18.52712891 28.5621875 19.83746094 28.593125 21.1875 28.625 C22.5228116 28.66319338 23.85809892 28.70224591 25.19335938 28.7421875 C28.46209888 28.83659153 31.73083064 28.92217017 35 29 C35 29.33 35 29.66 35 30 C30.85586599 30.28676632 26.71028498 30.52266305 22.5625 30.75 C21.39783203 30.83121094 20.23316406 30.91242188 19.03320312 30.99609375 C17.88916016 31.05410156 16.74511719 31.11210938 15.56640625 31.171875 C14.52427979 31.2347168 13.48215332 31.29755859 12.40844727 31.36230469 C9 31 9 31 0 27 C0 18.09 0 9.18 0 0 Z " fill="#93DD64" transform="translate(101,47)"/>
<path d="M0 0 C0.33 0 0.66 0 1 0 C1.19224376 3.9504953 1.37096681 7.90134584 1.53710938 11.85302734 C1.59555475 13.19759566 1.65771076 14.54200798 1.72363281 15.88623047 C1.81767443 17.81693337 1.89732692 19.7483203 1.9765625 21.6796875 C2.02893066 22.84226074 2.08129883 24.00483398 2.13525391 25.20263672 C2 28 2 28 0 30 C-2.79736328 30.22705078 -2.79736328 30.22705078 -6.3203125 30.1953125 C-8.20556641 30.18564453 -8.20556641 30.18564453 -10.12890625 30.17578125 C-11.44761719 30.15902344 -12.76632813 30.14226562 -14.125 30.125 C-15.46483721 30.11496983 -16.80468152 30.10584404 -18.14453125 30.09765625 C-21.42986573 30.07402075 -24.71484465 30.04107234 -28 30 C-28 29.67 -28 29.34 -28 29 C-19.585 28.505 -19.585 28.505 -11 28 C-11 27.67 -11 27.34 -11 27 C-10.36191406 26.93941406 -9.72382813 26.87882812 -9.06640625 26.81640625 C-7.82697266 26.69072266 -7.82697266 26.69072266 -6.5625 26.5625 C-5.73878906 26.48128906 -4.91507813 26.40007812 -4.06640625 26.31640625 C-2.01337975 26.21069185 -2.01337975 26.21069185 -1 25 C-0.84213692 23.14825294 -0.74892644 21.2909089 -0.68359375 19.43359375 C-0.64169922 18.30888672 -0.59980469 17.18417969 -0.55664062 16.02539062 C-0.51732422 14.84138672 -0.47800781 13.65738281 -0.4375 12.4375 C-0.39431641 11.24962891 -0.35113281 10.06175781 -0.30664062 8.83789062 C-0.20016454 5.89205216 -0.09815159 2.9461257 0 0 Z " fill="#95D769" transform="translate(139,169)"/>
<path d="M0 0 C0.66 0.33 1.32 0.66 2 1 C1.67 1.66 1.34 2.32 1 3 C1.66 3.33 2.32 3.66 3 4 C2.67 4.33 2.34 4.66 2 5 C1.84213692 6.85174706 1.74892644 8.7090911 1.68359375 10.56640625 C1.64169922 11.69111328 1.59980469 12.81582031 1.55664062 13.97460938 C1.51732422 15.15861328 1.47800781 16.34261719 1.4375 17.5625 C1.39431641 18.75037109 1.35113281 19.93824219 1.30664062 21.16210938 C1.20016454 24.10794784 1.09815159 27.0538743 1 30 C0.67 30 0.34 30 0 30 C0 21.75 0 13.5 0 5 C-0.66 5 -1.32 5 -2 5 C-2 13.58 -2 22.16 -2 31 C-2.33 31 -2.66 31 -3 31 C-3.07421454 27.06739056 -3.12863136 23.13505278 -3.16479492 19.2019043 C-3.18728333 17.20672299 -3.22540198 15.21173787 -3.26367188 13.21679688 C-3.27333984 11.96318359 -3.28300781 10.70957031 -3.29296875 9.41796875 C-3.3086792 8.26063232 -3.32438965 7.1032959 -3.34057617 5.91088867 C-3 3 -3 3 -1.48168945 1.09887695 C-0.99273193 0.73624756 -0.50377441 0.37361816 0 0 Z " fill="#91D268" transform="translate(104,162)"/>
<path d="M0 0 C0.99 0.33 1.98 0.66 3 1 C3.95458649 9.35263176 4.11039334 17.59784035 4 26 C3.34 26.33 2.68 26.66 2 27 C0.68638302 24.37276604 0.78746091 22.27389439 0.68359375 19.3359375 C0.64169922 18.21445313 0.59980469 17.09296875 0.55664062 15.9375 C0.51732422 14.761875 0.47800781 13.58625 0.4375 12.375 C0.39431641 11.19164062 0.35113281 10.00828125 0.30664062 8.7890625 C0.20032574 5.85949672 0.09829358 2.92984412 0 0 Z " fill="#99E564" transform="translate(139,46)"/>
<path d="M0 0 C4.21771839 0.11833202 8.43520823 0.24258602 12.65258789 0.37231445 C14.08711003 0.41560793 15.52168184 0.45728699 16.95629883 0.49731445 C19.0191952 0.55515267 21.08184283 0.61880753 23.14453125 0.68359375 C25.00621948 0.73858032 25.00621948 0.73858032 26.90551758 0.79467773 C30 1 30 1 33 2 C33 2.66 33 3.32 33 4 C22.44 3.67 11.88 3.34 1 3 C0.67 2.01 0.34 1.02 0 0 Z " fill="#94E95E" transform="translate(61,42)"/>
<path d="M0 0 C10.56 0 21.12 0 32 0 C32 0.66 32 1.32 32 2 C27.60454738 2.19725192 23.20863314 2.38110072 18.8125 2.5625 C16.94368164 2.64661133 16.94368164 2.64661133 15.03710938 2.73242188 C13.83505859 2.78076172 12.63300781 2.82910156 11.39453125 2.87890625 C9.73707886 2.94960327 9.73707886 2.94960327 8.04614258 3.02172852 C5.20682971 3.00147534 2.75203915 2.66505747 0 2 C0 1.34 0 0.68 0 0 Z " fill="#A0E674" transform="translate(153,42)"/>
<path d="M0 0 C0.99 0 1.98 0 3 0 C2.67 9.57 2.34 19.14 2 29 C-0.66840824 26.33159176 -0.31782918 24.88139836 -0.44921875 21.15234375 C-0.51399414 19.40920898 -0.51399414 19.40920898 -0.58007812 17.63085938 C-0.61552734 16.41205078 -0.65097656 15.19324219 -0.6875 13.9375 C-0.73455078 12.71482422 -0.78160156 11.49214844 -0.83007812 10.23242188 C-1.05569231 3.5712555 -1.05569231 3.5712555 -1 1 C-0.67 0.67 -0.34 0.34 0 0 Z " fill="#9FE46F" transform="translate(58,163)"/>
<path d="M0 0 C0.78165527 0.23771118 0.78165527 0.23771118 1.57910156 0.48022461 C4.65107932 1.13978902 7.59339747 1.21997273 10.734375 1.31640625 C12.02988281 1.35830078 13.32539062 1.40019531 14.66015625 1.44335938 C16.02343476 1.48316671 17.38671606 1.52287906 18.75 1.5625 C20.12891875 1.60572274 21.50782526 1.64933821 22.88671875 1.69335938 C26.2577119 1.79943958 29.62877826 1.9014985 33 2 C32.67 2.66 32.34 3.32 32 4 C23.09 3.67 14.18 3.34 5 3 C5 3.66 5 4.32 5 5 C8.63 5 12.26 5 16 5 C16 5.33 16 5.66 16 6 C13.87506859 6.02693575 11.75004088 6.04636628 9.625 6.0625 C8.44164063 6.07410156 7.25828125 6.08570312 6.0390625 6.09765625 C3 6 3 6 1 5 C0.375 2.4375 0.375 2.4375 0 0 Z " fill="#9EE36A" transform="translate(59,74)"/>
<path d="M0 0 C0.99 0 1.98 0 3 0 C3.6875 1.8125 3.6875 1.8125 4 4 C2.75 5.75 2.75 5.75 1 7 C0.01 7 -0.98 7 -2 7 C-2 6.01 -2 5.02 -2 4 C-11.57 4 -21.14 4 -31 4 C-31 3.67 -31 3.34 -31 3 C-16.15 2.505 -16.15 2.505 -1 2 C-0.67 1.34 -0.34 0.68 0 0 Z " fill="#B8F294" transform="translate(94,72)"/>
<path d="M0 0 C0.33 0.66 0.66 1.32 1 2 C-2.63 2 -6.26 2 -10 2 C-10 2.99 -10 3.98 -10 5 C-9.30132812 4.96519531 -8.60265625 4.93039063 -7.8828125 4.89453125 C-6.97273437 4.86746094 -6.06265625 4.84039062 -5.125 4.8125 C-4.22007812 4.77769531 -3.31515625 4.74289063 -2.3828125 4.70703125 C-1.20332031 4.85205078 -1.20332031 4.85205078 0 5 C0.99 6.485 0.99 6.485 2 8 C-1.96 8 -5.92 8 -10 8 C-10 9.98 -10 11.96 -10 14 C-12.60585556 10.09121666 -12.22321871 6.53878034 -12 2 C-10.26043342 0.26043342 -7.8063378 0.62809614 -5.4375 0.4375 C-4.42558594 0.35371094 -3.41367188 0.26992187 -2.37109375 0.18359375 C-1.58863281 0.12300781 -0.80617187 0.06242187 0 0 Z " fill="#A7E283" transform="translate(137,114)"/>
<path d="M0 0 C2.9375 0.8125 2.9375 0.8125 6 2 C6.33 2.99 6.66 3.98 7 5 C16.57 5 26.14 5 36 5 C36 5.33 36 5.66 36 6 C31.81912848 6.07441989 27.6386127 6.12872818 23.45727539 6.16479492 C22.03630859 6.1798376 20.61538787 6.20027704 19.19458008 6.22631836 C17.14653114 6.26290347 15.0990985 6.27977097 13.05078125 6.29296875 C11.20480347 6.31653442 11.20480347 6.31653442 9.3215332 6.34057617 C5.70424499 5.96967451 3.84299793 5.23651787 1 3 C0.67 2.01 0.34 1.02 0 0 Z " fill="#A2EA6E" transform="translate(101,74)"/>
<path d="M0 0 C2.86724686 0.57344937 3.8614515 0.8614515 6 3 C6.22705078 5.24658203 6.22705078 5.24658203 6.1953125 8.0078125 C6.18886719 8.99394531 6.18242187 9.98007813 6.17578125 10.99609375 C6.15902344 12.02863281 6.14226562 13.06117188 6.125 14.125 C6.11597656 15.16527344 6.10695312 16.20554688 6.09765625 17.27734375 C6.07403747 19.85179092 6.04110149 22.42578212 6 25 C5.67 25 5.34 25 5 25 C4.96261719 23.91460937 4.92523438 22.82921875 4.88671875 21.7109375 C4.82102125 20.26559261 4.75457524 18.82028161 4.6875 17.375 C4.66494141 16.66214844 4.64238281 15.94929687 4.61914062 15.21484375 C4.37859088 10.44758523 3.40693813 7.21987611 1 3 C0.67 2.01 0.34 1.02 0 0 Z " fill="#9DED6A" transform="translate(136,163)"/>
<path d="M0 0 C3.63 0 7.26 0 11 0 C12.64957337 4.85168639 13.04603158 8.00229357 12 13 C12.33 13.66 12.66 14.32 13 15 C12.34 15 11.68 15 11 15 C11.33 15.99 11.66 16.98 12 18 C10.0625 17.1875 10.0625 17.1875 8 16 C7.67 15.01 7.34 14.02 7 13 C7.99 13 8.98 13 10 13 C10 9.37 10 5.74 10 2 C6.7 1.67 3.4 1.34 0 1 C0 0.67 0 0.34 0 0 Z " fill="#A7E283" transform="translate(107,115)"/>
<path d="M0 0 C3.63 0 7.26 0 11 0 C10.67 0.66 10.34 1.32 10 2 C8.02 2 6.04 2 4 2 C3.814375 3.4540625 3.814375 3.4540625 3.625 4.9375 C3.41875 5.948125 3.2125 6.95875 3 8 C2.01 8.495 2.01 8.495 1 9 C-1.125 2.25 -1.125 2.25 0 0 Z " fill="#9FEF6F" transform="translate(82,122)"/>
<path d="M0 0 C0.33 0 0.66 0 1 0 C0.67 3.63 0.34 7.26 0 11 C-0.66 11 -1.32 11 -2 11 C-2.66 9.68 -3.32 8.36 -4 7 C-5.32 7 -6.64 7 -8 7 C-8 6.34 -8 5.68 -8 5 C-6.02 5 -4.04 5 -2 5 C-2 4.34 -2 3.68 -2 3 C-4.31 3 -6.62 3 -9 3 C-9 2.67 -9 2.34 -9 2 C-6.36 2 -3.72 2 -1 2 C-0.67 1.34 -0.34 0.68 0 0 Z " fill="#A4F171" transform="translate(117,117)"/>
<path d="M0 0 C-0.4811491 5.77378925 -2.18467181 9.95859836 -5 15 C-5.33 15 -5.66 15 -6 15 C-6.19842856 10.73378599 -5.68560261 7.89795604 -4 4 C-4 3.01 -4 2.02 -4 1 C-1 0 -1 0 0 0 Z " fill="#A4EE76" transform="translate(230,114)"/>
<path d="M0 0 C0.8353125 0.2784375 0.8353125 0.2784375 1.6875 0.5625 C4.05608681 1.16536239 4.05608681 1.16536239 6.625 0.4375 C7.40875 0.293125 8.1925 0.14875 9 0 C11 2 11 2 11.1953125 3.9453125 C11.13020833 5.96354167 11.06510417 7.98177083 11 10 C10.34 9.67 9.68 9.34 9 9 C9 6.69 9 4.38 9 2 C6.69 2.33 4.38 2.66 2 3 C2 3.66 2 4.32 2 5 C0.68 4.34 -0.64 3.68 -2 3 C-1.34 3 -0.68 3 0 3 C0 2.01 0 1.02 0 0 Z " fill="#BAF094" transform="translate(90,143)"/>
<path d="M0 0 C0.33 0 0.66 0 1 0 C1.08131463 1.43655854 1.13933559 2.8744483 1.1875 4.3125 C1.22230469 5.11300781 1.25710937 5.91351563 1.29296875 6.73828125 C1 9 1 9 -0.38671875 10.79296875 C-2 12 -2 12 -4 12 C-4 9.03 -4 6.06 -4 3 C-5.32 2.34 -6.64 1.68 -8 1 C-6.02 1 -4.04 1 -2 1 C-1.67 2.98 -1.34 4.96 -1 7 C-0.67 4.69 -0.34 2.38 0 0 Z " fill="#A0DF7C" transform="translate(98,106)"/>
<path d="M0 0 C7.84179688 6.4453125 7.84179688 6.4453125 10 10 C10 10.66 10 11.32 10 12 C9.01 12.33 8.02 12.66 7 13 C6.67 11.02 6.34 9.04 6 7 C5.01 7.33 4.02 7.66 3 8 C2.34 7.67 1.68 7.34 1 7 C0.59270772 4.67843403 0.25561323 2.3431213 0 0 Z " fill="#A2E878" transform="translate(213,56)"/>
<path d="M0 0 C0.66 0.66 1.32 1.32 2 2 C0.75645114 3.29787866 -0.4951264 4.58806759 -1.75 5.875 C-2.44609375 6.59429687 -3.1421875 7.31359375 -3.859375 8.0546875 C-5.85122217 9.86479679 -7.5427658 10.94848086 -10 12 C-10 9 -10 9 -8.5390625 7.39453125 C-7.90742188 6.87246094 -7.27578125 6.35039062 -6.625 5.8125 C-5.99851563 5.28269531 -5.37203125 4.75289062 -4.7265625 4.20703125 C-3 3 -3 3 -1 3 C-0.67 2.01 -0.34 1.02 0 0 Z " fill="#A9EC7A" transform="translate(218,134)"/>
<path d="M0 0 C0.99 0 1.98 0 3 0 C3 3.63 3 7.26 3 11 C2.01 11.33 1.02 11.66 0 12 C0 8.04 0 4.08 0 0 Z " fill="#9DEE6A" transform="translate(96,48)"/>
<path d="M0 0 C3.96 0 7.92 0 12 0 C12 1.65 12 3.3 12 5 C11.67 4.34 11.34 3.68 11 3 C9.39125 3.0928125 9.39125 3.0928125 7.75 3.1875 C4 3 4 3 0 0 Z " fill="#94E35F" transform="translate(105,116)"/>
<path d="M0 0 C0.66 0.33 1.32 0.66 2 1 C1.67 9.58 1.34 18.16 1 27 C0.67 27 0.34 27 0 27 C-0.19582583 22.68783519 -0.38027074 18.3752591 -0.5625 14.0625 C-0.61857422 12.83080078 -0.67464844 11.59910156 -0.73242188 10.33007812 C-0.78076172 9.16025391 -0.82910156 7.99042969 -0.87890625 6.78515625 C-0.9260376 5.70113525 -0.97316895 4.61711426 -1.02172852 3.50024414 C-1 1 -1 1 0 0 Z " fill="#A9F274" transform="translate(58,163)"/>
<path d="M0 0 C1.37478516 0.01740234 1.37478516 0.01740234 2.77734375 0.03515625 C3.69644531 0.04417969 4.61554688 0.05320312 5.5625 0.0625 C6.27277344 0.07410156 6.98304687 0.08570312 7.71484375 0.09765625 C7.71484375 0.42765625 7.71484375 0.75765625 7.71484375 1.09765625 C5.40484375 1.09765625 3.09484375 1.09765625 0.71484375 1.09765625 C0.71484375 2.74765625 0.71484375 4.39765625 0.71484375 6.09765625 C-0.27515625 6.09765625 -1.26515625 6.09765625 -2.28515625 6.09765625 C-2.61515625 6.75765625 -2.94515625 7.41765625 -3.28515625 8.09765625 C-3.32757348 5.7647085 -3.32608562 3.43063058 -3.28515625 1.09765625 C-2.28515625 0.09765625 -2.28515625 0.09765625 0 0 Z " fill="#B1E88D" transform="translate(83.28515625,114.90234375)"/>
<path d="M0 0 C2.5625 2.1875 2.5625 2.1875 5 5 C4.8125 7.8125 4.8125 7.8125 4 10 C2.35 8.68 0.7 7.36 -1 6 C-0.67 4.02 -0.34 2.04 0 0 Z " fill="#A3E673" transform="translate(102,189)"/>
<path d="M0 0 C4.62 0 9.24 0 14 0 C10.59568053 2.26954631 8.83475798 2.36549949 4.8125 2.625 C3.72582031 2.69976562 2.63914062 2.77453125 1.51953125 2.8515625 C0.68808594 2.90054688 -0.14335938 2.94953125 -1 3 C-0.67 2.01 -0.34 1.02 0 0 Z " fill="#A1EB70" transform="translate(106,162)"/>
<path d="M0 0 C0.66 0.33 1.32 0.66 2 1 C2 4.3 2 7.6 2 11 C0.68 10.67 -0.64 10.34 -2 10 C-1.34 6.7 -0.68 3.4 0 0 Z " fill="#AAEF6C" transform="translate(88,135)"/>
<path d="M0 0 C0.66 0 1.32 0 2 0 C2 2.97 2 5.94 2 9 C1.01 9 0.02 9 -1 9 C-1.09765625 2.84765625 -1.09765625 2.84765625 -1 1 C-0.67 0.67 -0.34 0.34 0 0 Z " fill="#9AE669" transform="translate(102,126)"/>
<path d="M0 0 C1.32 0.33 2.64 0.66 4 1 C2.23628182 2.03307771 0.46374967 3.05112049 -1.3125 4.0625 C-2.79169922 4.91521484 -2.79169922 4.91521484 -4.30078125 5.78515625 C-7 7 -7 7 -10 6 C-9.34 6 -8.68 6 -8 6 C-7.67 5.01 -7.34 4.02 -7 3 C-3.535 2.505 -3.535 2.505 0 2 C0 1.34 0 0.68 0 0 Z " fill="#B1EE88" transform="translate(204,146)"/>
<path d="M0 0 C0.33 0 0.66 0 1 0 C1 5.94 1 11.88 1 18 C0.01 18 -0.98 18 -2 18 C-1.67 17.34 -1.34 16.68 -1 16 C-0.7677354 13.28737884 -0.58063765 10.59226874 -0.4375 7.875 C-0.39431641 7.12089844 -0.35113281 6.36679688 -0.30664062 5.58984375 C-0.2005168 3.72678112 -0.09974999 1.86341476 0 0 Z " fill="#93DD68" transform="translate(98,176)"/>
<path d="M0 0 C0.66 0 1.32 0 2 0 C2.1875 3.375 2.1875 3.375 2 7 C1.01 7.66 0.02 8.32 -1 9 C-2.60031344 5.79937313 -1.03173691 3.27728194 0 0 Z " fill="#98F556" transform="translate(204,107)"/>
<path d="M0 0 C2.3431213 0.25561323 4.67843403 0.59270772 7 1 C7.33 1.66 7.66 2.32 8 3 C7.01 3 6.02 3 5 3 C5 3.66 5 4.32 5 5 C3.35 5 1.7 5 0 5 C0 3.35 0 1.7 0 0 Z " fill="#9FEC6B" transform="translate(74,128)"/>
<path d="M0 0 C2.97 0 5.94 0 9 0 C10 4 10 4 9 6 C8.01 5.67 7.02 5.34 6 5 C6 4.34 6 3.68 6 3 C6.66 3 7.32 3 8 3 C8 2.34 8 1.68 8 1 C5.36 1 2.72 1 0 1 C0 0.67 0 0.34 0 0 Z " fill="#96DF5E" transform="translate(64,118)"/>
<path d="M0 0 C5.66153846 1.47692308 5.66153846 1.47692308 7.375 4.125 C7.684375 5.053125 7.684375 5.053125 8 6 C2.33846154 4.52307692 2.33846154 4.52307692 0.625 1.875 C0.41875 1.25625 0.2125 0.6375 0 0 Z " fill="#A6E87B" transform="translate(101,74)"/>
<path d="M0 0 C1.98 0 3.96 0 6 0 C6 0.99 6 1.98 6 3 C4.1875 3.625 4.1875 3.625 2 4 C1.01 3.34 0.02 2.68 -1 2 C-0.67 1.34 -0.34 0.68 0 0 Z " fill="#96EB6B" transform="translate(92,132)"/>
<path d="M0 0 C0.33 0.99 0.66 1.98 1 3 C1.66 3.33 2.32 3.66 3 4 C2.01 4.99 1.02 5.98 0 7 C0 6.01 0 5.02 0 4 C-1.32 4.33 -2.64 4.66 -4 5 C-2.25 1.125 -2.25 1.125 0 0 Z " fill="#B3E888" transform="translate(105,82)"/>
<path d="M0 0 C0.99 0.66 1.98 1.32 3 2 C2.42655063 4.86724686 2.1385485 5.8614515 0 8 C-0.66 6.02 -1.32 4.04 -2 2 C-1.34 2 -0.68 2 0 2 C0 1.34 0 0.68 0 0 Z " fill="#A2EF77" transform="translate(201,81)"/>
<path d="M0 0 C1.98 0.495 1.98 0.495 4 1 C3.01 2.98 2.02 4.96 1 7 C0.34 7 -0.32 7 -1 7 C-0.67 4.69 -0.34 2.38 0 0 Z " fill="#97ED67" transform="translate(127,123)"/>
<path d="M0 0 C-0.33 1.32 -0.66 2.64 -1 4 C-4.875 2.25 -4.875 2.25 -6 0 C-3 -1 -3 -1 0 0 Z " fill="#AFE875" transform="translate(63,195)"/>
<path d="M0 0 C0.66 0.33 1.32 0.66 2 1 C1.67 1.66 1.34 2.32 1 3 C1.66 3.33 2.32 3.66 3 4 C2 5 2 5 -0.5625 5.0625 C-1.7690625 5.0315625 -1.7690625 5.0315625 -3 5 C-1.125 1.125 -1.125 1.125 0 0 Z " fill="#A2E47B" transform="translate(104,162)"/>
<path d="M0 0 C0.66 0 1.32 0 2 0 C2 0.99 2 1.98 2 3 C2.66 3.33 3.32 3.66 4 4 C2.35 4.66 0.7 5.32 -1 6 C-1.042721 4.33388095 -1.04063832 2.66617115 -1 1 C-0.67 0.67 -0.34 0.34 0 0 Z " fill="#ADEC7D" transform="translate(59,122)"/>
<path d="M0 0 C0.66 1.32 1.32 2.64 2 4 C0.02 4.66 -1.96 5.32 -4 6 C-4.66 5.34 -5.32 4.68 -6 4 C-4.02 2.68 -2.04 1.36 0 0 Z " fill="#ABED7C" transform="translate(194,120)"/>
<path d="M0 0 C2.475 0.495 2.475 0.495 5 1 C5 3.97 5 6.94 5 10 C4.67 10 4.34 10 4 10 C4 7.69 4 5.38 4 3 C2.68 2.34 1.36 1.68 0 1 C0 0.67 0 0.34 0 0 Z " fill="#B9F4A2" transform="translate(96,103)"/>
<path d="M0 0 C0.99 0.66 1.98 1.32 3 2 C2.34 3.32 1.68 4.64 1 6 C0.67 5.34 0.34 4.68 0 4 C-0.99 3.67 -1.98 3.34 -3 3 C-2.01 2.01 -1.02 1.02 0 0 Z " fill="#9EE472" transform="translate(60,42)"/>
<path d="M0 0 C0 1.98 0 3.96 0 6 C-0.99 6.495 -0.99 6.495 -2 7 C-2 5.35 -2 3.7 -2 2 C-3.32 1.67 -4.64 1.34 -6 1 C-3.92446352 0.4465236 -2.15634036 0 0 0 Z " fill="#A2F16A" transform="translate(98,145)"/>
</svg>
